Coordinates
version=1
nRows=36
nColumns=30
inDegrees=yes

Units are S.I. units (second, meters, Newtons, ...)
Angles are in degrees.

endheader
time	floatyaw	floatroll	floatpitch	floatx	floaty	floatz	pro_sup_l	deviation_l	flexion_l	cmc_flexion_l	cmc_abduction_l	mp_flexion_l	ip_flexion_l	2mcp_flexion_l	2mcp_abduction_l	2pm_flexion_l	2md_flexion_l	3mcp_flexion_l	3mcp_abduction_l	3pm_flexion_l	3md_flexion_l	4mcp_flexion_l	4mcp_abduction_l	4pm_flexion_l	4md_flexion_l	5mcp_flexion_l	5mcp_abduction_l	5pm_flexion_l	5md_flexion_l
-0.995000	-1.899941	-3.552005	97.501371	-0.100645	-0.188231	-0.033107	85.659351	2.821457	-1.242359	12.366329	7.824131	-22.665803	-34.821499	39.651649	10.229189	46.971447	32.735179	23.010384	5.517669	46.132085	32.357337	11.870422	-4.722164	61.339863	42.523175	6.060310	-10.617179	61.471432	42.575810
-0.985000	-1.899941	-3.552005	97.501371	-0.100631	-0.188239	-0.033100	85.687164	2.831704	-1.256484	12.371906	7.785014	-22.675756	-34.843151	39.653941	10.237498	47.026265	32.756057	23.011944	5.519917	46.160092	32.374615	11.882861	-4.713847	61.383408	42.538438	6.117091	-10.654534	61.497986	42.578202
-0.975000	-1.899941	-3.552005	97.501371	-0.100611	-0.188249	-0.033099	85.717159	2.848104	-1.274805	12.382532	7.739721	-22.685485	-34.865488	39.654878	10.241470	47.086373	32.777798	23.024322	5.519169	46.200665	32.396252	11.898990	-4.706294	61.430399	42.553984	6.166893	-10.678135	61.539010	42.585127
-0.965000	-1.899941	-3.552005	97.501371	-0.100590	-0.188259	-0.033104	85.743761	2.866396	-1.293574	12.393482	7.693274	-22.696698	-34.888299	39.658226	10.239605	47.144259	32.796935	23.045867	5.517192	46.252486	32.422211	11.916851	-4.701568	61.474513	42.568350	6.209025	-10.686079	61.591221	42.595604
-0.955000	-1.899941	-3.552005	97.501371	-0.100568	-0.188267	-0.033112	85.763882	2.881614	-1.308826	12.401819	7.651604	-22.709653	-34.911187	39.664577	10.234175	47.195326	32.812470	23.070177	5.516832	46.312490	32.452377	11.934013	-4.700601	61.513777	42.581581	6.251138	-10.686672	61.653522	42.608023
-0.945000	-1.899941	-3.552005	97.501371	-0.100549	-0.188272	-0.033120	85.778505	2.890079	-1.317800	12.406838	7.620243	-22.722597	-34.932984	39.670982	10.229270	47.240082	32.826265	23.089299	5.520617	46.375538	32.485733	11.949102	-4.703215	61.550499	42.594735	6.303592	-10.693269	61.725715	42.620068
-0.935000	-1.899941	-3.552005	97.501371	-0.100531	-0.188272	-0.033123	85.792151	2.890746	-1.319326	12.409448	7.602947	-22.732497	-34.951753	39.673073	10.227802	47.283106	32.841598	23.098285	5.528935	46.434768	32.519677	11.962945	-4.708679	61.588345	42.608612	6.370203	-10.714575	61.804863	42.628860
-0.925000	-1.899941	-3.552005	97.501371	-0.100506	-0.188261	-0.033111	85.810200	2.885266	-1.312912	12.411262	7.600161	-22.736679	-34.965564	39.668044	10.229567	47.329265	32.860663	23.098227	5.538892	46.482990	32.550122	11.978131	-4.716200	61.628808	42.622748	6.442548	-10.747224	61.882639	42.631545
-0.915000	-1.899941	-3.552005	97.501371	-0.100466	-0.188229	-0.033075	85.835324	2.876988	-1.297603	12.414202	7.607976	-22.734354	-34.973685	39.656486	10.231556	47.379670	32.882580	23.095740	5.544937	46.514852	32.572670	11.996920	-4.725020	61.669679	42.635556	6.503000	-10.776267	61.946705	42.626206
-0.905000	-1.899941	-3.552005	97.501371	-0.100396	-0.188165	-0.033006	85.865186	2.869763	-1.272203	12.420776	7.618556	-22.727062	-34.977406	39.642096	10.229961	47.430320	32.903350	23.099246	5.541416	46.528883	32.584397	12.019157	-4.734314	61.706321	42.645445	6.535174	-10.783450	61.985952	42.612612
-0.895000	-1.899941	-3.552005	97.501371	-0.100287	-0.188061	-0.032900	85.893157	2.867362	-1.237471	12.434324	7.622494	-22.717802	-34.979890	39.629796	10.222432	47.474572	32.917952	23.114538	5.525885	46.528363	32.585344	12.042346	-4.743293	61.734369	42.651901	6.534638	-10.757644	61.996084	42.592284
-0.885000	-1.899941	-3.552005	97.501371	-0.100133	-0.187912	-0.032756	85.912016	2.873702	-1.199089	12.458119	7.612285	-22.709617	-34.984967	39.623610	10.209328	47.507616	32.923271	23.142376	5.501265	46.520500	32.578832	12.064421	-4.751605	61.751660	42.655640	6.512694	-10.700813	61.981572	42.567756
-0.875000	-1.899941	-3.552005	97.501371	-0.099932	-0.187724	-0.032579	85.918589	2.893425	-1.169131	12.492959	7.585359	-22.704540	-34.995391	39.625342	10.193620	47.529749	32.919980	23.179183	5.475318	46.514241	32.570391	12.087285	-4.759733	61.758428	42.657837	6.491023	-10.626456	61.952917	42.541532
-0.865000	-1.899941	-3.552005	97.501371	-0.099691	-0.187504	-0.032375	85.916601	2.931961	-1.164365	12.534515	7.545415	-22.703215	-35.011234	39.634163	10.179743	47.546226	32.912235	23.219704	5.457403	46.517546	32.565776	12.117932	-4.768984	61.756422	42.659234	6.490714	-10.552243	61.921618	42.515479
-0.855000	-1.899941	-3.552005	97.501371	-0.099420	-0.187265	-0.032152	85.916125	2.994372	-1.201410	12.572899	7.501798	-22.704717	-35.029140	39.646614	10.171853	47.563833	32.905447	23.259240	5.454122	46.534773	32.568832	12.165188	-4.780873	61.748082	42.659856	6.521786	-10.491623	61.896110	42.490932
-0.845000	-1.899941	-3.552005	97.501371	-0.099126	-0.187017	-0.031914	85.930122	3.082811	-1.290413	12.596248	7.467362	-22.706349	-35.043074	39.656557	10.171809	47.586207	32.903393	23.293773	5.466110	46.564352	32.579821	12.232869	-4.795966	61.735827	42.659328	6.578347	-10.449140	61.879950	42.468967
-0.835000	-1.899941	-3.552005	97.501371	-0.098817	-0.186765	-0.031666	85.970174	3.193527	-1.429842	12.597513	7.455330	-22.703833	-35.046807	39.655288	10.177376	47.610598	32.906206	23.318413	5.487572	46.597287	32.594642	12.313126	-4.812622	61.720728	42.657126	6.641433	-10.421347	61.871308	42.449990
-0.825000	-1.899941	-3.552005	97.501371	-0.098491	-0.186513	-0.031407	86.043418	3.315271	-1.604888	12.580892	7.475774	-22.692333	-35.037351	39.632576	10.181757	47.628336	32.910340	23.326276	5.508699	46.618058	32.605539	12.384928	-4.826537	61.700760	42.652366	6.687854	-10.401608	61.862941	42.432650
-0.815000	-1.899941	-3.552005	97.501371	-0.098142	-0.186256	-0.031132	86.151322	3.430837	-1.790545	12.563301	7.532662	-22.667996	-35.017539	39.579166	10.175677	47.629534	32.910692	23.309606	5.519868	46.609638	32.603828	12.420532	-4.832006	61.670749	42.643652	6.700802	-10.385279	61.843506	42.413261
-0.805000	-1.899941	-3.552005	97.501371	-0.097758	-0.185994	-0.030835	86.289660	3.522159	-1.958144	12.568383	7.622399	-22.629289	-34.995926	39.490449	10.151918	47.609893	32.903795	23.263152	5.515818	46.562037	32.584169	12.398034	-4.824848	61.625937	42.629810	6.677570	-10.372472	61.801656	42.387080
-0.795000	-1.899941	-3.552005	97.501371	-0.097334	-0.185734	-0.030515	86.448880	3.577279	-2.082543	12.614568	7.733936	-22.577853	-34.983543	39.370657	10.110002	47.575460	32.890175	23.188672	5.498011	46.480375	32.548424	12.313901	-4.805366	61.568214	42.611611	6.631487	-10.367434	61.732450	42.351410
-0.785000	-1.899941	-3.552005	97.501371	-0.096867	-0.185493	-0.030180	86.614348	3.595986	-2.147526	12.702463	7.849911	-22.519013	-34.988597	39.236734	10.058055	47.542179	32.874500	23.099284	5.474021	46.387504	32.506779	12.189220	-4.779276	61.511021	42.593492	6.588160	-10.375318	61.643494	42.308924
-0.775000	-1.899941	-3.552005	97.501371	-0.096368	-0.185294	-0.029845	86.766339	3.590885	-2.148594	12.808015	7.948741	-22.461818	-35.011216	39.119973	10.010597	47.530308	32.863723	23.022012	5.454196	46.318636	32.475139	12.067108	-4.755752	61.478750	42.583799	6.578480	-10.398207	61.557897	42.269079
-0.765000	-1.899941	-3.552005	97.501371	-0.095848	-0.185162	-0.029530	86.880667	3.582681	-2.093497	12.885873	8.008374	-22.418130	-35.040623	39.062348	9.983600	47.556344	32.864556	22.995892	5.447267	46.309306	32.469610	12.002762	-4.743739	61.499152	42.592606	6.630817	-10.432380	61.512034	42.246251
-0.755000	-1.899941	-3.552005	97.501371	-0.095323	-0.185116	-0.029254	86.931889	3.591446	-2.000625	12.883495	8.012042	-22.400512	-35.056967	39.105441	9.989192	47.625505	32.881276	23.063087	5.457005	46.381010	32.500175	12.049005	-4.748620	61.591018	42.627488	6.763186	-10.467904	61.546852	42.254648
-0.745000	-1.899941	-3.552005	97.501371	-0.094813	-0.185159	-0.029030	86.900427	3.627898	-1.894843	12.761986	7.954676	-22.419259	-35.038797	39.273969	10.031684	47.727532	32.914284	23.253459	5.481187	46.530646	32.566262	12.239862	-4.770755	61.752930	42.689242	6.975822	-10.490711	61.692958	42.301623
-0.735000	-1.899941	-3.552005	97.501371	-0.094339	-0.185277	-0.028862	86.781831	3.688928	-1.800820	12.515651	7.847004	-22.479212	-34.974377	39.560972	10.105719	47.838709	32.959842	23.568092	5.512875	46.729908	32.656781	12.575816	-4.806100	61.960156	42.770428	7.246775	-10.486894	61.953719	42.382439
-0.725000	-1.899941	-3.552005	97.501371	-0.093930	-0.185438	-0.028750	86.593020	3.759803	-1.735515	12.180341	7.714219	-22.577131	-34.871520	39.923551	10.197154	47.931298	33.011569	23.970835	5.543294	46.936906	32.755473	13.017197	-4.848079	62.173526	42.858487	7.535101	-10.448461	62.295466	42.480004
-0.715000	-1.899941	-3.552005	97.501371	-0.093609	-0.185597	-0.028685	86.369915	3.822204	-1.703026	11.823710	7.588246	-22.700684	-34.759178	40.294204	10.286975	47.986805	33.063404	24.395339	5.565187	47.115080	32.849270	13.492524	-4.889681	62.356449	42.942013	7.793716	-10.378276	62.654114	42.571221
-0.705000	-1.899941	-3.552005	97.501371	-0.093393	-0.185709	-0.028660	86.155506	3.863871	-1.694596	11.519662	7.496277	-22.830436	-34.677539	40.604541	10.357224	48.005017	33.112337	24.767373	5.575273	47.248668	32.934687	13.922287	-4.925135	62.489975	43.016197	7.987380	-10.290425	62.958871	42.637382
-0.695000	-1.899941	-3.552005	97.501371	-0.093278	-0.185745	-0.028669	85.984116	3.884397	-1.694105	11.319590	7.450982	-22.945252	-34.660502	40.810387	10.396458	48.002320	33.158977	25.032648	5.574656	47.345522	33.017898	14.248261	-4.951018	62.577169	43.083833	8.106186	-10.204044	63.161317	42.672471
-0.685000	-1.899941	-3.552005	97.501371	-0.093245	-0.185700	-0.028706	85.870594	3.893978	-1.686282	11.235838	7.447392	-23.029039	-34.719820	40.905504	10.402302	48.000576	33.205632	25.175871	5.567170	47.426641	33.108272	14.453027	-4.966672	62.635863	43.151420	8.166909	-10.133731	63.253048	42.684231
-0.675000	-1.899941	-3.552005	97.501371	-0.093262	-0.185591	-0.028766	85.809433	3.906420	-1.663471	11.244702	7.467728	-23.075134	-34.839554	40.917621	10.380530	48.014645	33.253612	25.221630	5.556981	47.510474	33.209804	14.559899	-4.973735	62.685998	43.223218	8.202406	-10.083401	63.262883	42.687972
-0.665000	-1.899941	-3.552005	97.501371	-0.093301	-0.185452	-0.028843	85.782102	3.931017	-1.627872	11.304053	7.491217	-23.086251	-34.983795	40.890843	10.341970	48.046357	33.302009	25.218380	5.547028	47.602070	33.316437	14.615401	-4.974916	62.739342	43.297409	8.246068	-10.047996	63.238093	42.697848
-0.655000	-1.899941	-3.552005	97.501371	-0.093337	-0.185321	-0.028929	85.766968	3.967923	-1.588781	11.373702	7.503579	-23.071060	-35.113262	40.865278	10.298883	48.086834	33.348666	25.215307	5.538874	47.692318	33.414390	14.665321	-4.972663	62.796031	43.366823	8.319228	-10.020878	63.221906	42.720817
-0.645000	-1.899941	-3.552005	97.501371	-0.093360	-0.185226	-0.029015	85.746958	4.008987	-1.556883	11.428379	7.501558	-23.040071	-35.201549	40.863745	10.261767	48.123503	33.391937	25.243410	5.533347	47.765610	33.489499	14.736342	-4.968489	62.847859	43.423178	8.425696	-10.000409	63.238001	42.755478
